<svg id="Layer_1" data-name="Layer 1" xmlns="http://www.w3.org/2000/svg" viewBox="0 0 512 512"><defs><style>.cls-1{fill:#2b374f;}</style></defs><title>gallows-glyph</title><path class="cls-1" d="M44.8,0A12.8,12.8,0,0,0,32,12.8V64A12.8,12.8,0,0,0,44.8,76.8h32V409.6L30.72,444.16A12.82,12.82,0,0,0,25.6,454.4v44.8A12.8,12.8,0,0,0,38.4,512H192a12.8,12.8,0,0,0,12.8-12.8V454.4a12.82,12.82,0,0,0-5.12-10.24L153.6,409.6V227.1L303.91,76.8H409.6V179.2h-6.4a12.8,12.8,0,1,0,0,25.6A12.78,12.78,0,0,0,401,230.18C385.9,243,364.8,266.94,364.8,300.8a57.6,57.6,0,0,0,115.2,0c0-33.86-21.1-57.78-36.24-70.62a12.78,12.78,0,0,0-2.16-25.38,12.8,12.8,0,0,0,0-25.6h-6.4V76.8h38.4A12.8,12.8,0,0,0,486.4,64V12.8A12.8,12.8,0,0,0,473.6,0ZM454.4,300.8a32,32,0,1,1-64,0c0-27.32,21.14-46.76,32-55C433.34,254,454.4,273.28,454.4,300.8ZM153.6,76.8h41.69L153.6,118.5Z"/></svg>